<?xml version="1.0" standalone="no"?>
<!DOCTYPE svg PUBLIC "-//W3C//DTD SVG 20010904//EN"
 "http://www.w3.org/TR/2001/REC-SVG-20010904/DTD/svg10.dtd">
<svg version="1.0" xmlns="http://www.w3.org/2000/svg"
 width="1024.000000pt" height="1024.000000pt" viewBox="0 0 1024.000000 1024.000000"
 preserveAspectRatio="xMidYMid meet">
<metadata>
Created by potrace 1.11, written by Peter Selinger 2001-2013
</metadata>
<g transform="translate(0.000000,1024.000000) scale(0.100000,-0.100000)"
fill="#000000" stroke="none">
<path d="M5078 9497 c-25 -17 -138 -184 -138 -204 0 -2 -16 -29 -35 -59 -19
-30 -35 -57 -35 -60 0 -10 -74 -129 -83 -132 -4 -2 -5 -7 -2 -12 3 -5 -1 -14
-8 -22 -8 -7 -16 -18 -18 -23 -3 -9 -74 -134 -104 -183 -5 -9 -35 -60 -65
-112 -30 -52 -60 -104 -67 -115 -7 -11 -15 -27 -20 -35 -4 -8 -31 -55 -60
-103 -29 -48 -53 -90 -53 -93 0 -3 -8 -18 -19 -32 -10 -15 -31 -49 -45 -77
-15 -27 -36 -63 -46 -80 -10 -16 -25 -41 -33 -55 -60 -109 -153 -266 -159
-268 -5 -2 -8 -8 -8 -14 0 -6 -19 -43 -43 -82 -24 -39 -46 -78 -50 -86 -4 -8
-18 -33 -32 -55 -14 -22 -28 -47 -32 -55 -4 -8 -17 -32 -30 -53 -13 -21 -33
-54 -44 -73 -39 -69 -57 -100 -89 -154 -18 -30 -41 -70 -52 -88 -42 -74 -172
-299 -189 -327 -11 -16 -22 -37 -26 -45 -4 -8 -23 -42 -44 -76 -20 -33 -40
-70 -43 -82 -4 -12 -12 -22 -17 -22 -5 0 -9 -4 -9 -9 0 -5 -20 -42 -45 -83
-25 -40 -51 -85 -57 -100 -7 -16 -16 -28 -20 -28 -4 0 -8 -5 -8 -10 0 -6 -50
-97 -112 -203 -61 -105 -123 -212 -137 -237 -14 -25 -29 -46 -33 -48 -4 -2 -8
-9 -8 -16 0 -6 -11 -28 -25 -49 -14 -20 -22 -37 -18 -37 4 0 3 -4 -3 -8 -6 -4
-48 -72 -93 -152 -46 -80 -87 -149 -92 -155 -14 -14 -11 -51 6 -65 8 -7 15
-18 15 -25 0 -8 3 -15 8 -17 4 -1 15 -19 25 -38 9 -19 26 -48 37 -65 11 -16
24 -39 29 -51 5 -12 26 -46 45 -77 20 -31 36 -58 36 -61 0 -2 21 -40 46 -83
26 -43 89 -152 142 -243 52 -91 103 -178 113 -195 10 -16 22 -37 26 -45 3 -8
26 -47 50 -87 24 -39 43 -73 43 -76 0 -3 87 -153 120 -207 5 -8 28 -48 51 -88
23 -41 93 -162 155 -269 63 -108 114 -198 114 -200 0 -2 7 -11 15 -20 8 -8 13
-19 10 -24 -4 -5 -3 -9 2 -9 4 0 19 -20 31 -44 22 -41 45 -58 82 -60 23 -1 92
25 122 45 14 11 31 19 37 19 6 0 11 4 11 9 0 5 11 12 24 15 14 3 31 12 38 19
8 6 27 19 43 28 17 8 145 82 285 164 140 81 272 158 292 169 36 20 98 56 443
257 83 48 166 96 185 107 115 65 256 147 260 152 3 3 16 11 30 17 34 17 84 46
225 130 11 7 27 15 35 19 8 4 33 19 55 33 22 14 43 24 47 23 3 -1 12 5 18 13
7 8 16 15 21 15 5 0 33 16 63 35 30 19 58 35 61 35 3 0 31 16 61 35 30 19 57
35 60 35 3 0 28 15 57 33 29 18 66 39 82 47 17 8 32 18 35 21 16 18 162 89
184 89 63 0 96 -26 145 -113 10 -19 25 -45 33 -58 7 -13 15 -26 18 -29 3 -3
16 -26 30 -52 21 -39 58 -104 170 -297 9 -14 42 -73 75 -131 33 -58 63 -106
67 -108 4 -2 8 -7 8 -12 0 -4 41 -78 90 -164 50 -86 90 -159 90 -161 0 -3 8
-14 18 -25 9 -11 17 -24 17 -28 0 -4 8 -18 16 -32 40 -64 89 -152 89 -161 0
-5 3 -9 8 -9 4 0 16 -19 27 -43 11 -23 22 -44 25 -47 4 -3 34 -54 68 -115 35
-60 67 -117 72 -125 77 -131 100 -172 100 -180 0 -6 5 -10 10 -10 6 0 10 -4
10 -10 0 -5 13 -31 29 -58 34 -59 72 -125 97 -172 11 -19 21 -37 24 -40 5 -5
13 -19 58 -99 14 -25 36 -63 49 -83 12 -21 23 -42 23 -48 0 -5 3 -10 8 -10 4
0 18 -25 32 -55 14 -30 28 -55 33 -55 4 0 7 -7 7 -15 0 -8 5 -15 10 -15 6 0
10 -6 10 -14 0 -8 3 -16 8 -18 4 -1 15 -19 24 -38 10 -19 30 -55 44 -80 15
-25 36 -61 47 -80 10 -19 50 -88 88 -152 38 -64 69 -120 69 -123 0 -4 13 -25
28 -48 49 -72 57 -115 31 -164 -11 -21 -36 -36 -50 -30 -3 1 -12 -3 -20 -8
-20 -15 -2504 -12 -2541 3 -33 14 -64 47 -98 106 -14 24 -39 68 -56 97 -17 30
-40 70 -51 89 -90 155 -123 213 -123 220 0 5 -4 10 -8 12 -4 2 -19 23 -33 48
-32 57 -216 375 -240 415 -11 17 -23 39 -29 50 -6 11 -20 37 -33 57 -12 21
-35 61 -51 90 -15 29 -34 60 -42 69 -8 8 -14 18 -14 21 0 4 -27 52 -60 108
-33 56 -60 104 -60 106 0 9 -55 89 -70 102 -26 21 -140 5 -140 -20 0 -4 -5 -8
-11 -8 -5 0 -122 -67 -259 -150 -137 -83 -253 -150 -259 -150 -5 0 -11 -4 -13
-8 -1 -4 -20 -18 -41 -31 -20 -13 -40 -34 -43 -47 -13 -53 -4 -76 120 -287 10
-18 66 -115 124 -217 59 -102 109 -187 112 -190 3 -3 15 -23 26 -45 12 -22 38
-68 58 -102 38 -66 95 -165 127 -220 11 -18 29 -50 40 -70 12 -21 43 -75 70
-121 27 -45 49 -87 49 -92 0 -6 3 -10 8 -10 4 0 12 -10 18 -23 15 -33 58 -111
64 -117 3 -3 11 -16 18 -29 25 -44 49 -86 101 -174 28 -49 51 -93 51 -98 0 -5
3 -9 8 -9 4 0 12 -10 18 -23 23 -49 59 -112 67 -115 4 -2 7 -10 7 -18 0 -8 4
-14 10 -14 5 0 12 -11 16 -24 6 -25 46 -66 80 -84 12 -5 884 -9 2319 -8 l2300
1 31 22 c46 33 47 61 4 140 -67 124 -104 188 -109 193 -7 6 -49 82 -66 117 -5
13 -13 23 -17 23 -5 0 -8 7 -8 15 0 8 -4 15 -10 15 -5 0 -10 4 -10 9 0 5 -23
49 -51 98 -29 48 -65 113 -82 143 -16 30 -35 62 -41 70 -6 8 -16 24 -22 35
-13 24 -437 753 -471 810 -13 22 -26 48 -30 58 -3 9 -9 17 -14 17 -5 0 -9 6
-9 14 0 8 -6 21 -13 28 -7 7 -18 24 -25 38 -18 37 -48 88 -61 103 -6 8 -8 17
-4 20 3 4 2 7 -4 7 -6 0 -13 8 -16 18 -4 9 -16 34 -29 54 -13 20 -62 103 -109
185 -145 250 -201 347 -220 378 -10 17 -27 47 -38 67 -11 21 -33 57 -48 80
-15 24 -28 50 -29 58 -2 8 -8 16 -13 18 -6 2 -11 10 -11 18 0 8 -4 14 -10 14
-5 0 -10 4 -10 10 0 5 -32 64 -72 132 -39 68 -78 134 -85 148 -8 14 -25 43
-39 65 -13 22 -27 47 -31 55 -4 8 -22 38 -40 67 -18 29 -33 57 -33 63 0 5 -5
10 -11 10 -5 0 -8 4 -5 9 3 5 -1 14 -9 21 -8 7 -15 19 -15 26 0 8 -3 14 -7 14
-5 0 -13 10 -19 23 -17 37 -59 112 -65 117 -3 3 -8 12 -12 20 -4 8 -18 33 -32
55 -14 22 -28 47 -32 55 -3 8 -14 26 -23 40 -9 14 -31 50 -47 80 -17 30 -61
107 -98 170 -37 63 -81 140 -98 170 -16 30 -35 62 -41 70 -6 8 -22 35 -35 60
-13 25 -30 52 -37 61 -8 8 -14 19 -14 22 0 4 -16 31 -35 61 -19 30 -35 57 -35
60 0 2 -21 40 -46 83 -26 43 -56 94 -67 113 -10 19 -59 103 -108 187 -49 83
-89 156 -89 161 0 6 -3 12 -8 14 -7 3 -112 179 -149 248 -7 14 -13 21 -13 16
0 -5 -9 -1 -20 9 -41 37 -78 24 -298 -102 -114 -65 -218 -124 -232 -130 -14
-7 -32 -17 -40 -23 -16 -11 -108 -63 -355 -203 -88 -49 -176 -99 -195 -110
-19 -11 -55 -31 -79 -45 -25 -14 -67 -38 -93 -53 -27 -16 -53 -29 -58 -29 -4
0 -10 -3 -12 -7 -1 -5 -19 -17 -38 -27 -83 -46 -118 -65 -160 -90 -25 -15 -53
-29 -62 -33 -10 -3 -18 -9 -18 -14 0 -5 -5 -9 -11 -9 -6 0 -54 -25 -106 -55
-53 -30 -98 -55 -100 -55 -3 0 -17 -8 -31 -18 -15 -11 -52 -32 -82 -49 -30
-17 -71 -40 -90 -51 -19 -12 -55 -31 -80 -44 -25 -13 -46 -26 -48 -30 -2 -5
-7 -8 -12 -8 -5 0 -43 -20 -84 -45 -42 -25 -78 -45 -80 -45 -2 0 -41 -22 -87
-48 -46 -27 -105 -60 -130 -74 -83 -47 -94 -53 -99 -58 -3 -3 -25 -15 -50 -28
-69 -34 -131 -27 -170 19 -15 18 -53 80 -55 89 0 3 -26 49 -58 102 -31 53 -57
101 -57 107 0 5 -3 11 -7 13 -5 2 -19 25 -33 53 -14 27 -29 54 -33 60 -4 5
-38 64 -76 130 -37 66 -75 132 -85 147 -18 27 -18 29 9 80 33 63 48 89 58 102
4 6 40 67 79 136 38 69 78 139 88 155 32 55 183 320 202 355 36 65 53 95 83
145 43 72 74 126 88 155 6 14 14 27 17 30 4 4 18 28 64 115 6 11 14 22 17 25
4 3 21 32 39 65 35 66 35 67 175 310 54 94 109 190 123 215 14 25 50 88 80
140 30 52 66 115 80 139 14 25 37 65 52 90 14 26 30 53 34 61 4 8 15 30 25 49
l18 34 39 -64 c21 -35 45 -75 51 -89 7 -14 17 -32 23 -40 9 -13 29 -49 91
-157 11 -18 27 -48 38 -65 10 -18 32 -57 50 -86 17 -29 31 -57 31 -62 0 -6 5
-10 10 -10 6 0 10 -4 10 -10 0 -5 27 -55 60 -111 33 -55 60 -103 60 -105 0 -3
16 -30 35 -60 19 -30 35 -56 35 -59 0 -10 261 -452 276 -467 11 -12 33 -18 59
-18 34 0 66 15 184 85 78 47 147 85 152 85 5 0 9 5 9 10 0 6 6 10 14 10 8 0
16 3 18 8 2 4 20 16 40 27 80 43 276 166 288 180 7 8 12 33 12 55 -1 37 -13
65 -79 180 -11 19 -29 51 -40 70 -80 140 -115 201 -138 240 -14 25 -31 57 -38
73 -6 15 -15 27 -19 27 -4 0 -8 4 -8 10 0 8 -173 319 -200 360 -6 8 -13 22
-17 30 -4 8 -38 69 -77 135 -38 66 -85 147 -103 180 -19 33 -39 64 -44 70 -5
5 -9 17 -9 27 0 10 -5 18 -10 18 -6 0 -14 8 -17 18 -4 9 -73 132 -153 272 -81
140 -162 282 -180 315 -18 33 -36 65 -40 70 -4 6 -17 26 -27 45 -11 19 -78
136 -148 259 -154 267 -180 293 -247 248z"/>
<path d="M2369 4769 c-12 -10 -25 -19 -28 -19 -4 0 -20 -25 -36 -55 -17 -30
-34 -55 -38 -55 -5 0 -6 -4 -3 -8 3 -5 -5 -24 -18 -43 -13 -19 -34 -54 -48
-79 -61 -109 -111 -194 -118 -200 -3 -3 -6 -12 -8 -20 -2 -8 -10 -22 -18 -31
-8 -8 -14 -18 -14 -21 0 -3 -54 -99 -120 -213 -66 -114 -120 -211 -120 -216 0
-5 -4 -9 -8 -9 -4 0 -13 -12 -19 -27 -13 -31 -51 -97 -89 -155 -13 -21 -24
-42 -24 -48 0 -5 -4 -10 -10 -10 -5 0 -9 -3 -8 -7 2 -8 -18 -46 -99 -180 -24
-40 -43 -77 -43 -82 0 -5 -3 -11 -7 -13 -5 -1 -16 -19 -27 -38 -57 -106 -80
-145 -88 -148 -4 -2 -8 -8 -8 -14 0 -5 -22 -48 -50 -95 -27 -47 -50 -87 -50
-89 0 -3 -16 -30 -35 -60 -19 -30 -35 -57 -35 -60 0 -3 -16 -30 -35 -60 -19
-30 -35 -56 -35 -58 0 -1 -31 -58 -70 -125 -38 -68 -70 -127 -70 -132 0 -5 -4
-9 -8 -9 -5 0 -22 -27 -38 -60 -16 -33 -32 -60 -36 -60 -5 0 -8 -5 -8 -11 0
-10 -88 -167 -129 -229 -9 -14 -25 -43 -36 -65 -11 -22 -22 -42 -25 -45 -9 -9
-51 -84 -63 -112 -6 -16 -15 -28 -19 -28 -4 0 -8 -4 -8 -10 0 -8 -56 -107 -90
-160 -6 -8 -13 -22 -17 -30 -3 -8 -26 -48 -50 -87 -23 -40 -43 -74 -43 -77 0
-2 -25 -45 -55 -95 -30 -51 -55 -94 -55 -97 0 -3 -16 -30 -35 -60 -19 -30 -35
-56 -35 -59 0 -2 -20 -38 -45 -80 -24 -41 -41 -75 -37 -75 4 0 1 -4 -7 -9 -8
-5 -24 -33 -36 -62 -26 -60 -22 -83 19 -114 27 -20 31 -20 2284 -19 1241 1
2265 3 2274 6 10 2 26 13 36 24 35 37 32 59 -14 140 -24 43 -44 81 -44 86 0 4
-4 8 -10 8 -5 0 -10 4 -10 10 0 5 -13 31 -29 57 -16 27 -40 66 -53 89 -98 171
-164 280 -173 286 -5 4 -6 8 -1 8 5 0 2 8 -6 18 -8 9 -30 44 -48 77 -19 33
-37 62 -42 63 -4 2 -8 12 -8 23 0 10 -4 19 -8 19 -5 0 -16 15 -25 33 -9 17
-25 46 -35 62 -9 17 -43 74 -75 127 -31 53 -57 100 -57 103 0 4 -6 13 -12 20
-7 8 -67 106 -133 219 -100 172 -126 209 -154 222 -18 9 -39 17 -45 18 -6 1
-16 5 -22 8 -10 7 -93 -31 -124 -57 -8 -7 -20 -14 -25 -16 -22 -9 -210 -124
-213 -131 -2 -5 -7 -6 -12 -3 -4 3 -13 -2 -20 -10 -7 -8 -17 -15 -22 -15 -5 0
-14 -5 -21 -10 -7 -6 -61 -40 -122 -76 -60 -36 -117 -72 -125 -80 -21 -21 -17
-87 11 -141 13 -26 26 -50 29 -53 5 -5 23 -38 84 -155 17 -33 33 -62 36 -65
12 -12 3 -43 -16 -58 -18 -16 -87 -17 -785 -16 -421 0 -770 4 -777 8 -31 19
-21 41 160 351 58 99 156 268 218 375 62 107 120 206 129 220 9 14 25 41 34
60 19 37 39 72 47 80 5 5 15 23 51 88 11 20 34 60 50 87 16 28 35 61 42 75 35
73 97 83 128 21 8 -14 34 -62 59 -106 25 -44 54 -97 65 -118 28 -53 48 -69 91
-71 37 -2 104 21 104 36 0 4 9 8 20 8 11 0 20 4 20 9 0 5 14 14 30 21 17 7 30
17 30 22 0 5 5 6 10 3 6 -3 10 -1 10 4 0 6 4 11 8 11 13 0 444 259 468 282 34
31 34 70 1 135 -16 32 -34 68 -41 80 -6 13 -14 23 -18 23 -5 0 -8 4 -8 10 0 5
-18 39 -40 75 -22 36 -40 67 -40 69 0 2 -43 74 -95 161 -52 87 -95 164 -95
172 0 7 -4 13 -9 13 -5 0 -16 15 -25 33 -9 17 -25 46 -35 62 -10 17 -27 46
-38 65 -20 34 -85 144 -110 185 -7 11 -15 27 -19 35 -4 8 -20 34 -36 58 -16
23 -25 42 -21 42 4 0 3 4 -3 8 -6 4 -21 27 -35 52 -13 25 -26 47 -29 50 -3 3
-11 16 -19 30 -46 81 -176 300 -194 327 -19 28 -38 39 -84 49 -7 1 -22 -6 -34
-17z"/>
</g>
</svg>
